<svg>
  <defs>
    <clipPath id="linkedin">
      <path
        d="M31.825 28.6818V28.6004C31.8081 28.6279 31.7901 28.6554 31.7721 28.6818H31.825Z"
        fill="current"
      />
      <path
        d="M52.1386 4.93923H7.56172C5.42813 4.93923 3.69775 6.62833 3.69775 8.71007V53.8088C3.69775 55.8894 5.42813 57.5785 7.56172 57.5785H52.1386C54.2754 57.5785 56.0058 55.8884 56.0058 53.8088V8.71007C56.0058 6.62727 54.2744 4.93923 52.1386 4.93923ZM19.5526 49.005H11.6522V25.2359H19.5526V49.005ZM15.6029 21.989H15.55C12.8999 21.989 11.1855 20.1633 11.1855 17.8826C11.1855 15.5511 12.9529 13.7763 15.6548 13.7763C18.3578 13.7763 20.0204 15.5511 20.0733 17.8826C20.0733 20.1633 18.3567 21.989 15.6029 21.989ZM48.0418 49.005H40.1414V36.286C40.1414 33.0919 38.9984 30.9118 36.1399 30.9118C33.9576 30.9118 32.6579 32.3818 32.0854 33.8021C31.8769 34.309 31.8261 35.0181 31.8261 35.7293V49.0039H23.9256C23.9256 49.0039 24.0294 27.4626 23.9256 25.2349H31.8261V28.5993C32.876 26.98 34.7534 24.6739 38.9476 24.6739C44.1451 24.6739 48.0429 28.0722 48.0429 35.3737V49.005H48.0418Z"
        fill="current"
      />
    </clipPath>
  </defs>
</svg>