<svg width="54" height="53" viewBox="0 0 54 53" fill="none" xmlns="http://www.w3.org/2000/svg">
<path fill-rule="evenodd" clip-rule="evenodd" d="M27 0.00396729C12.5039 0.00396729 0.75 12.0508 0.75 26.9219C0.75 38.8165 8.27344 48.8946 18.7031 52.4571C20.0156 52.7032 20.4961 51.8712 20.4961 51.1563C20.4961 50.5118 20.4727 48.8243 20.4609 46.5743C13.1602 48.2032 11.6133 42.9649 11.6133 42.9649C10.418 39.8594 8.69531 39.0274 8.69531 39.0274C6.31641 37.3516 8.87109 37.3868 8.87109 37.3868C11.5078 37.5743 12.8906 40.1641 12.8906 40.1641C15.2344 44.2774 19.0313 43.0938 20.5313 42.4024C20.7656 40.668 21.4453 39.4727 22.1953 38.8047C16.3711 38.1251 10.2422 35.8165 10.2422 25.504C10.2422 22.5626 11.2617 20.1602 12.9375 18.2852C12.668 17.6055 11.7656 14.8633 13.1953 11.1602C13.1953 11.1602 15.3984 10.4337 20.4141 13.9141C22.5117 13.3165 24.75 13.0235 26.9883 13.0118C29.2148 13.0235 31.4648 13.3165 33.5625 13.9141C38.5781 10.4337 40.7695 11.1602 40.7695 11.1602C42.1992 14.8633 41.2969 17.6055 41.0273 18.2852C42.7031 20.1719 43.7227 22.5743 43.7227 25.504C43.7227 35.8399 37.582 38.1133 31.7344 38.7813C32.6719 39.6133 33.5156 41.254 33.5156 43.7618C33.5156 47.3594 33.4805 50.2657 33.4805 51.1446C33.4805 51.8594 33.9492 52.7032 35.2852 52.4337C45.7383 48.8829 53.25 38.8047 53.25 26.9219C53.25 12.0508 41.4961 0.00396729 27 0.00396729Z" fill="white"/>
</svg>
