<svg width="58" height="57" viewBox="0 0 58 57" fill="none" xmlns="http://www.w3.org/2000/svg">
<path d="M29 21.4464C27.6536 21.4464 26.3374 21.8456 25.2179 22.5936C24.0984 23.3417 23.2258 24.4049 22.7106 25.6488C22.1953 26.8927 22.0605 28.2615 22.3232 29.582C22.5859 30.9026 23.2342 32.1156 24.1863 33.0676C25.1383 34.0197 26.3513 34.6681 27.6719 34.9307C28.9924 35.1934 30.3612 35.0586 31.6051 34.5433C32.8491 34.0281 33.9123 33.1555 34.6603 32.036C35.4083 30.9165 35.8076 29.6004 35.8076 28.2539C35.8053 26.4491 35.0874 24.7189 33.8112 23.4427C32.535 22.1665 30.8048 21.4486 29 21.4464V21.4464Z" fill="white"/>
<path d="M37.0088 10.9128H20.9912C18.517 10.9156 16.1449 11.8998 14.3954 13.6493C12.6458 15.3989 11.6617 17.771 11.6588 20.2452V36.2628C11.6617 38.737 12.6458 41.1091 14.3954 42.8586C16.1449 44.6082 18.517 45.5923 20.9912 45.5952H37.0088C39.483 45.5923 41.8551 44.6082 43.6047 42.8586C45.3542 41.1091 46.3384 38.737 46.3412 36.2628V20.2452C46.3384 17.771 45.3542 15.3989 43.6047 13.6493C41.8551 11.8998 39.483 10.9156 37.0088 10.9128V10.9128ZM29 38.658C26.9423 38.658 24.9308 38.0478 23.2199 36.9046C21.5089 35.7614 20.1754 34.1365 19.388 32.2354C18.6005 30.3343 18.3945 28.2424 18.7959 26.2243C19.1974 24.2061 20.1883 22.3523 21.6433 20.8972C23.0983 19.4422 24.9521 18.4513 26.9703 18.0499C28.9885 17.6485 31.0804 17.8545 32.9815 18.6419C34.8825 19.4294 36.5074 20.7629 37.6506 22.4738C38.7938 24.1848 39.404 26.1963 39.404 28.254C39.4008 31.0123 38.3037 33.6568 36.3532 35.6072C34.4028 37.5577 31.7584 38.6548 29 38.658V38.658ZM40.4324 19.4268C39.9244 19.4268 39.4278 19.2762 39.0054 18.994C38.583 18.7119 38.2537 18.3109 38.0591 17.8416C37.8646 17.3724 37.8135 16.856 37.9123 16.3577C38.0112 15.8594 38.2555 15.4016 38.6144 15.0422C38.9734 14.6827 39.4308 14.4377 39.929 14.3382C40.4271 14.2386 40.9436 14.289 41.4131 14.4829C41.8826 14.6768 42.2841 15.0056 42.5669 15.4276C42.8496 15.8496 43.0009 16.346 43.0016 16.854C43.0022 17.1918 42.9363 17.5264 42.8074 17.8386C42.6786 18.1509 42.4894 18.4347 42.2508 18.6738C42.0122 18.9129 41.7287 19.1025 41.4167 19.232C41.1047 19.3614 40.7702 19.428 40.4324 19.428V19.4268Z" fill="white"/>
<path d="M57.182 13.2228C57.1787 12.205 57.0855 11.1894 56.9036 10.188C56.6708 8.9652 56.3432 7.7736 55.7576 6.6684C55.1477 5.50397 54.3539 4.44557 53.4068 3.534C51.9762 2.13357 50.2091 1.12519 48.2756 0.606C46.496 0.126 44.6756 0.0251999 42.8504 0.0275999C42.8444 0.0195565 42.8407 0.0100125 42.8396 0H15.1508C15.1508 0.0096 15.1508 0.0191999 15.1508 0.0275999C14.1128 0.0467999 13.0724 0.0383999 12.0404 0.1668C10.9087 0.286451 9.79459 0.536097 8.72004 0.9108C7.04884 1.52725 5.54049 2.51721 4.31004 3.8052C2.89958 5.23858 1.88388 7.01243 1.36164 8.9544C0.888838 10.7208 0.785638 12.522 0.783238 14.3364L0.764038 42.1368C0.797638 43.3908 0.808438 44.6568 1.01964 45.9C1.24404 47.22 1.56444 48.5052 2.17644 49.7028C2.99041 51.3075 4.15028 52.7117 5.57244 53.814C6.58761 54.6231 7.73766 55.2467 8.96964 55.656C10.784 56.2416 12.656 56.466 14.5556 56.4768C15.7412 56.484 16.9244 56.514 18.11 56.5092C26.7188 56.4732 35.3288 56.5716 43.9376 56.4564C45.0749 56.4314 46.2081 56.311 47.3252 56.0964C49.4379 55.7242 51.4039 54.7672 53 53.334C54.8936 51.6444 56.1716 49.578 56.7488 47.0832C57.1268 45.4524 57.2204 43.7976 57.2372 42.138V41.8068C57.236 41.6772 57.1868 13.5948 57.182 13.2228ZM49.9364 36.2628C49.9323 39.6903 48.569 42.9762 46.1455 45.3999C43.7221 47.8236 40.4363 49.1872 37.0088 49.1916H20.9912C17.5636 49.1875 14.2775 47.824 11.8538 45.4003C9.43003 42.9766 8.06657 39.6905 8.06244 36.2628V20.2452C8.06657 16.8175 9.43003 13.5314 11.8538 11.1077C14.2775 8.68399 17.5636 7.32053 20.9912 7.3164H37.0088C40.4365 7.32053 43.7226 8.68399 46.1463 11.1077C48.57 13.5314 49.9335 16.8175 49.9376 20.2452L49.9364 36.2628Z" fill="white"/>
</svg>
