<svg width="54" height="53" viewBox="0 0 54 53" fill="none" xmlns="http://www.w3.org/2000/svg">
<path d="M28.825 23.9358V23.8543C28.8081 23.8818 28.7901 23.9093 28.7721 23.9358H28.825Z" fill="white"/>
<path d="M49.1386 0.193176H4.56172C2.42813 0.193176 0.697754 1.88227 0.697754 3.96401V49.0627C0.697754 51.1434 2.42813 52.8325 4.56172 52.8325H49.1386C51.2754 52.8325 53.0058 51.1423 53.0058 49.0627V3.96401C53.0058 1.88122 51.2744 0.193176 49.1386 0.193176ZM16.5526 44.2589H8.65217V20.4899H16.5526V44.2589ZM12.6029 17.2429H12.55C9.89995 17.2429 8.18545 15.4173 8.18545 13.1366C8.18545 10.8051 9.95286 9.03025 12.6548 9.03025C15.3578 9.03025 17.0204 10.8051 17.0733 13.1366C17.0733 15.4173 15.3567 17.2429 12.6029 17.2429ZM45.0418 44.2589H37.1414V31.5399C37.1414 28.3459 35.9984 26.1657 33.1399 26.1657C30.9576 26.1657 29.6579 27.6357 29.0854 29.056C28.8769 29.5629 28.8261 30.272 28.8261 30.9832V44.2579H20.9256C20.9256 44.2579 21.0294 22.7166 20.9256 20.4888H28.8261V23.8532C29.876 22.234 31.7534 19.9279 35.9476 19.9279C41.1451 19.9279 45.0429 23.3262 45.0429 30.6276V44.2589H45.0418Z" fill="white"/>
</svg>
